<svg width="36" height="27" viewBox="0 0 36 27" fill="none" xmlns="http://www.w3.org/2000/svg">
<path d="M2 6.82143H19.6786M19.6786 6.82143C19.6786 9.48423 21.8372 11.6429 24.5 11.6429C27.1628 11.6429 29.3214 9.48423 29.3214 6.82143M19.6786 6.82143C19.6786 4.15863 21.8372 2 24.5 2C27.1628 2 29.3214 4.15863 29.3214 6.82143M34.1429 6.82143H29.3214M34.1429 19.6786H16.4643M16.4643 19.6786C16.4643 22.3414 14.3057 24.5 11.6429 24.5C8.98006 24.5 6.82143 22.3414 6.82143 19.6786M16.4643 19.6786C16.4643 17.0158 14.3057 14.8571 11.6429 14.8571C8.98006 14.8571 6.82143 17.0158 6.82143 19.6786M2 19.6786H6.82143" stroke="#00B3FF" stroke-width="3.5" stroke-linecap="round" stroke-linejoin="round"/>
</svg>
