<svg width="244" height="234" viewBox="0 0 244 234" fill="none" xmlns="http://www.w3.org/2000/svg">
<path d="M121.707 111.38C136.456 111.38 150.6 105.521 161.028 95.0925C171.457 84.6639 177.316 70.5196 177.316 55.7712C177.316 41.0229 171.457 26.8786 161.028 16.4499C150.6 6.02124 136.456 0.162476 121.707 0.162476C106.959 0.162476 92.8145 6.02124 82.3859 16.4499C71.9572 26.8786 66.0984 41.0229 66.0984 55.7712C66.0984 70.5196 71.9572 84.6639 82.3859 95.0925C92.8145 105.521 106.959 111.38 121.707 111.38ZM121.707 135.812C47.7718 135.812 0.375 176.613 0.375 196.478V233.572H243.039V196.478C243.039 172.454 198.169 135.812 121.707 135.812Z" fill="#EFEFEF"/>
</svg>
