<svg width="50" height="46" viewBox="0 0 50 46" fill="none" xmlns="http://www.w3.org/2000/svg">
<path d="M42.5 0.5C46.4942 0.5 49.7592 3.6223 49.9873 7.55932L50 8V38C50 41.9942 46.8777 45.2592 42.9407 45.4873L42.5 45.5H7.5C3.5058 45.5 0.240848 42.3777 0.0127316 38.4407L0 38V8C0 4.0058 3.1223 0.740848 7.05932 0.512732L7.5 0.5H42.5ZM42.5 5.5H7.5C6.21791 5.5 5.16123 6.4651 5.01682 7.70845L5 8V38C5 39.2821 5.9651 40.3388 7.20845 40.4832L7.5 40.5H42.5C43.7821 40.5 44.8388 39.5349 44.9832 38.2916L45 38V8C45 6.71791 44.0349 5.66123 42.7916 5.51682L42.5 5.5ZM37.5 23C38.7821 23 39.8388 23.9651 39.9832 25.2084L40 25.5V33C40 34.2821 39.0349 35.3388 37.7916 35.4832L37.5 35.5H30C28.6193 35.5 27.5 34.3807 27.5 33C27.5 31.7179 28.4651 30.6612 29.7084 30.5168L30 30.5H35V25.5C35 24.2179 35.9651 23.1612 37.2084 23.0168L37.5 23ZM20 10.5C21.3807 10.5 22.5 11.6193 22.5 13C22.5 14.2821 21.5349 15.3388 20.2916 15.4832L20 15.5H15V20.5C15 21.7821 14.0349 22.8388 12.7916 22.9832L12.5 23C11.2179 23 10.1612 22.0349 10.0168 20.7916L10 20.5V13C10 11.7179 10.9651 10.6612 12.2084 10.5168L12.5 10.5H20Z" fill="#EFEFEF"/>
</svg>
