<svg width="46" height="46" viewBox="0 0 46 46" fill="none" xmlns="http://www.w3.org/2000/svg">
<path d="M14.6444 17.6016C13.8279 16.7851 13.8279 15.4612 14.6444 14.6446C15.461 13.8281 16.7849 13.8281 17.6014 14.6446L23.0119 20.0552L28.4169 14.6501C29.2336 13.8336 30.5574 13.8336 31.3739 14.6501C32.1906 15.4667 32.1906 16.7906 31.3739 17.6071L25.9689 23.0122L31.3718 28.4149C32.1883 29.2316 32.1883 30.5553 31.3718 31.3718C30.5551 32.1885 29.2313 32.1885 28.4146 31.3718L23.0119 25.9691L17.6075 31.3737C16.7909 32.1902 15.467 32.1902 14.6505 31.3737C13.834 30.557 13.834 29.2332 14.6505 28.4165L20.055 23.0122L14.6444 17.6016Z" fill="#D9D9D9"/>
<path fill-rule="evenodd" clip-rule="evenodd" d="M46 23C46 35.7025 35.7025 46 23 46C10.2975 46 0 35.7025 0 23C0 10.2975 10.2975 0 23 0C35.7025 0 46 10.2975 46 23ZM4.1961 23C4.1961 33.3851 12.6149 41.804 23 41.804C33.3851 41.804 41.804 33.3851 41.804 23C41.804 12.6149 33.3851 4.1961 23 4.1961C12.6149 4.1961 4.1961 12.6149 4.1961 23Z" fill="#D9D9D9"/>
</svg>
