<svg width="51" height="51" viewBox="0 0 51 51" fill="none" xmlns="http://www.w3.org/2000/svg">
<path d="M45.6774 4.51448L47.4452 6.28225L49.4494 4.27801L47.2106 2.53978L45.6774 4.51448ZM44.5252 3.84483L45.4818 1.53511L45.4818 1.53508L44.5252 3.84483ZM5.69827 3.84483L4.74158 1.53513L4.74154 1.53514L5.69827 3.84483ZM2.99229 6.55081L0.682603 5.59408L0.682586 5.59412L2.99229 6.55081ZM2.99229 45.3777L0.68254 46.3343L0.68257 46.3344L2.99229 45.3777ZM3.66194 46.53L1.68724 48.0631L3.42548 50.302L5.42971 48.2978L3.66194 46.53ZM47.2312 6.55081L49.541 5.59434L49.5409 5.59404L47.2312 6.55081ZM47.2312 45.3777L49.5408 46.3346L49.541 46.3341L47.2312 45.3777ZM44.5252 48.0837L45.4816 50.3936L45.482 50.3934L44.5252 48.0837ZM5.69827 48.0837L4.7415 50.3934L4.7418 50.3935L5.69827 48.0837ZM3.34393 44.1965C2.36762 45.1728 2.36762 46.7557 3.34393 47.732C4.32024 48.7083 5.90315 48.7083 6.87946 47.732L3.34393 44.1965ZM46.8795 7.732C47.8558 6.75569 47.8558 5.17278 46.8795 4.19647C45.9032 3.22016 44.3202 3.22016 43.3439 4.19647L46.8795 7.732ZM18.8617 10.9642C18.8617 9.58352 17.7424 8.46423 16.3617 8.46423C14.981 8.46423 13.8617 9.58352 13.8617 10.9642H18.8617ZM13.8617 23.4642C13.8617 24.8449 14.981 25.9642 16.3617 25.9642C17.7424 25.9642 18.8617 24.8449 18.8617 23.4642H13.8617ZM22.6117 19.7142C23.9924 19.7142 25.1117 18.5949 25.1117 17.2142C25.1117 15.8335 23.9924 14.7142 22.6117 14.7142V19.7142ZM10.1117 14.7142C8.73098 14.7142 7.61169 15.8335 7.61169 17.2142C7.61169 18.5949 8.73098 19.7142 10.1117 19.7142V14.7142ZM40.1117 38.4642C41.4924 38.4642 42.6117 37.3449 42.6117 35.9642C42.6117 34.5835 41.4924 33.4642 40.1117 33.4642V38.4642ZM27.6117 33.4642C26.231 33.4642 25.1117 34.5835 25.1117 35.9642C25.1117 37.3449 26.231 38.4642 27.6117 38.4642V33.4642ZM47.2106 2.53978C46.6864 2.13281 46.106 1.79365 45.4818 1.53511L43.5685 6.15456C43.7763 6.24062 43.9695 6.35345 44.1443 6.48919L47.2106 2.53978ZM45.4818 1.53508C44.667 1.19763 43.8423 1.07387 43.0177 1.01761C42.2155 0.96288 41.2424 0.964233 40.1117 0.964233V5.96423C41.3108 5.96423 42.0848 5.96559 42.6773 6.00601C43.2473 6.0449 43.4644 6.11144 43.5686 6.15459L45.4818 1.53508ZM40.1117 0.964233H10.1117V5.96423H40.1117V0.964233ZM10.1117 0.964233C8.98105 0.964233 8.00786 0.96288 7.20575 1.01761C6.38117 1.07387 5.5564 1.19763 4.74158 1.53513L6.65496 6.15454C6.75901 6.11144 6.97611 6.0449 7.5461 6.00601C8.13855 5.96559 8.91264 5.96423 10.1117 5.96423V0.964233ZM4.74154 1.53514C2.90386 2.29635 1.44381 3.7564 0.682603 5.59408L5.30199 7.50754C5.55573 6.89497 6.04243 6.40827 6.655 6.15452L4.74154 1.53514ZM0.682586 5.59412C0.345087 6.40894 0.221328 7.23371 0.165068 8.05828C0.11034 8.8604 0.111694 9.83359 0.111694 10.9642H5.11169C5.11169 9.76518 5.11305 8.99109 5.15347 8.39864C5.19236 7.82864 5.2589 7.61155 5.302 7.50749L0.682586 5.59412ZM0.111694 10.9642V40.9642H5.11169V10.9642H0.111694ZM0.111694 40.9642C0.111694 42.0949 0.11034 43.0681 0.165068 43.8702C0.22133 44.6948 0.345092 45.5195 0.68254 46.3343L5.30205 44.4212C5.2589 44.317 5.19236 44.0998 5.15347 43.5298C5.11305 42.9374 5.11169 42.1633 5.11169 40.9642H0.111694ZM0.68257 46.3344C0.941107 46.9586 1.28027 47.539 1.68724 48.0631L5.63665 44.9968C5.50091 44.822 5.38808 44.6289 5.30202 44.4211L0.68257 46.3344ZM5.42971 48.2978L47.4452 6.28225L43.9097 2.74672L1.89418 44.7622L5.42971 48.2978ZM43.5684 6.15449C44.181 6.40827 44.6678 6.89506 44.9215 7.50758L49.5409 5.59404C48.7796 3.75631 47.3194 2.29635 45.482 1.53518L43.5684 6.15449ZM44.9214 7.50728C44.9645 7.6114 45.031 7.82856 45.0699 8.39859C45.1103 8.99107 45.1117 9.76519 45.1117 10.9642H50.1117C50.1117 9.83358 50.113 8.86042 50.0583 8.05833C50.0021 7.23379 49.8784 6.40909 49.541 5.59434L44.9214 7.50728ZM45.1117 10.9642V40.9642H50.1117V10.9642H45.1117ZM45.1117 40.9642C45.1117 42.1633 45.1103 42.9374 45.0699 43.5299C45.031 44.0999 44.9645 44.3171 44.9214 44.4214L49.541 46.3341C49.8784 45.5193 50.0021 44.6947 50.0583 43.8701C50.113 43.0681 50.1117 42.0949 50.1117 40.9642H45.1117ZM44.9216 44.4209C44.6678 45.0334 44.1809 45.5203 43.5683 45.7741L45.482 50.3934C47.3195 49.6321 48.7796 48.172 49.5408 46.3346L44.9216 44.4209ZM43.5688 45.7739C43.4646 45.8171 43.2473 45.8836 42.6773 45.9225C42.0849 45.9629 41.3108 45.9642 40.1117 45.9642V50.9642C41.2424 50.9642 42.2155 50.9656 43.0176 50.9109C43.8422 50.8546 44.6668 50.7309 45.4816 50.3936L43.5688 45.7739ZM40.1117 45.9642H10.1117V50.9642H40.1117V45.9642ZM10.1117 45.9642C8.91265 45.9642 8.13853 45.9629 7.54606 45.9225C6.97602 45.8836 6.75886 45.8171 6.65474 45.7739L4.7418 50.3935C5.55655 50.7309 6.38125 50.8546 7.20579 50.9109C8.00788 50.9656 8.98104 50.9642 10.1117 50.9642V45.9642ZM6.65504 45.7741C6.04252 45.5203 5.55573 45.0335 5.30195 44.4209L0.682638 46.3345C1.44381 48.1719 2.90377 49.6321 4.7415 50.3934L6.65504 45.7741ZM6.87946 47.732L46.8795 7.732L43.3439 4.19647L3.34393 44.1965L6.87946 47.732ZM13.8617 10.9642V23.4642H18.8617V10.9642H13.8617ZM22.6117 14.7142H10.1117V19.7142H22.6117V14.7142ZM40.1117 33.4642H27.6117V38.4642H40.1117V33.4642Z" fill="#EFEFEF"/>
</svg>
