<svg width="16" height="15" viewBox="0 0 16 15" fill="none" xmlns="http://www.w3.org/2000/svg">
<path d="M15.6456 3.36499C15.5151 3.21393 15.3554 3.09308 15.1769 3.01031C14.9984 2.92755 14.805 2.88472 14.6095 2.88462H11.5173C11.3296 2.06335 10.8803 1.33178 10.242 0.808284C9.6037 0.284789 8.81377 0 8.00004 0C7.18631 0 6.39638 0.284789 5.75808 0.808284C5.11978 1.33178 4.67046 2.06335 4.48282 2.88462H1.39058C1.19501 2.88461 1.00164 2.9274 0.8231 3.01018C0.644557 3.09296 0.484856 3.21387 0.354426 3.36501C0.223996 3.51615 0.12577 3.69413 0.0661633 3.88733C0.00655637 4.08052 -0.0130912 4.28459 0.00850353 4.48619L0.997312 13.717C1.0348 14.0699 1.19659 14.396 1.45165 14.6328C1.70671 14.8696 2.03708 15.0003 2.37939 15H13.6207C13.963 15.0003 14.2934 14.8696 14.5484 14.6328C14.8035 14.396 14.9653 14.0699 15.0028 13.717L15.9916 4.48615C16.0131 4.28456 15.9933 4.08052 15.9337 3.88735C15.8741 3.69417 15.776 3.51619 15.6456 3.36499ZM8.00004 1.73077C8.36832 1.73113 8.72897 1.8397 9.04021 2.04391C9.35144 2.24812 9.60053 2.53961 9.75862 2.88462H6.24146C6.39955 2.53961 6.64864 2.24812 6.95987 2.04391C7.27111 1.8397 7.63176 1.73113 8.00004 1.73077ZM13.3718 13.2692H2.6283L1.70128 4.61539H14.2988L13.3718 13.2692Z" fill="#EFEFEF"/>
</svg>
