<svg width="14" height="15" viewBox="0 0 14 15" fill="none" xmlns="http://www.w3.org/2000/svg">
<path d="M7.20259 1.37229L6.57604 0.74573L7.20259 0.119183L7.82914 0.74573L7.20259 1.37229ZM8.08867 9.34701C8.08867 9.8364 7.69197 10.2331 7.20259 10.2331C6.71321 10.2331 6.31651 9.8364 6.31651 9.34701H8.08867ZM2.14563 5.17613L6.57604 0.74573L7.82914 1.99884L3.39874 6.42924L2.14563 5.17613ZM7.82914 0.74573L12.2595 5.17613L11.0064 6.42924L6.57604 1.99884L7.82914 0.74573ZM8.08867 1.37229V9.34701H6.31651V1.37229H8.08867Z" fill="#EFEFEF"/>
<path d="M1 11.1192V12.0053C1 12.984 1.79342 13.7774 2.77216 13.7774H11.633C12.6117 13.7774 13.4051 12.984 13.4051 12.0053V11.1192" stroke="#EFEFEF"/>
</svg>
