<svg width="15" height="14" viewBox="0 0 15 14" fill="none" xmlns="http://www.w3.org/2000/svg">
<path d="M10.8498 3.4C10.8498 1.53 9.32835 0 7.44985 0C5.57135 0 4.04985 1.53 4.04985 3.4C4.04985 5.2785 5.57135 6.8 7.44985 6.8C9.32835 6.8 10.8498 5.2785 10.8498 3.4ZM1.70385 7.4715C0.0718491 8.4065 -0.480651 10.489 0.454349 12.1125C1.39785 13.7445 3.47185 14.297 5.10385 13.362C6.72735 12.4185 7.28835 10.3445 6.34485 8.7125C5.40985 7.089 3.32735 6.5365 1.70385 7.4715ZM9.79585 13.362C11.4278 14.297 13.5018 13.7445 14.4453 12.121C15.3803 10.489 14.8278 8.415 13.1958 7.4715C11.5723 6.5365 9.48985 7.089 8.55485 8.7125C7.61135 10.3445 8.17235 12.4185 9.79585 13.362Z" fill="#EFEFEF"/>
</svg>
