<svg width="21" height="23" viewBox="0 0 21 23" fill="none" xmlns="http://www.w3.org/2000/svg">
<path d="M2.64276 2.12465C2.70254 1.06726 2.95512 0.607449 3.67944 0.238207C4.45881 -0.159213 5.68804 0.0257344 7.13445 0.75818C7.75746 1.07381 7.82089 1.08023 8.91272 0.94025C10.364 0.754115 12.2323 0.754772 13.5718 0.941954C14.5847 1.08351 14.6513 1.07644 15.2758 0.760151C17.3289 -0.279539 18.9498 -0.211512 19.5368 0.938937C19.8297 1.51318 19.8841 3.00324 19.657 4.2322C19.531 4.91353 19.5444 4.9986 19.8478 5.4457C21.9826 8.59164 20.4444 13.691 16.7863 15.5941C16.5063 15.7397 16.2705 15.8298 16.0782 15.9032C15.4879 16.1287 15.3086 16.1971 15.5256 17.2347C15.6301 17.7338 15.756 18.9746 15.8055 19.9923C15.8949 21.8318 15.8935 21.8446 15.5709 22.2199C15.1318 22.7304 14.4988 22.739 14.07 22.2403C13.7902 21.9151 13.7629 21.7616 13.7629 20.5069C13.7629 18.6527 13.5597 17.4203 13.0795 16.3642C12.5084 15.1075 12.9318 14.6389 14.2377 14.358C16.0528 13.9676 17.4705 12.8474 18.2607 11.1792C19.012 9.59345 19.1253 7.40209 17.767 6.06936C17.3807 5.61033 17.3538 5.19455 17.6296 3.94082C17.7327 3.47223 17.8191 2.86771 17.8217 2.5973C17.8256 2.17025 17.7867 2.10577 17.5244 2.10577C17.3584 2.10577 16.7243 2.34721 16.1154 2.64226L15.1435 3.11332C15.0551 3.15613 14.9562 3.1726 14.8587 3.16141C12.3874 2.87775 10.0392 2.87336 7.55581 3.16252C7.45792 3.17391 7.35863 3.15745 7.26996 3.11442L6.29859 2.64305C5.68961 2.34747 5.05547 2.10577 4.88953 2.10577C4.50587 2.10577 4.5001 2.38902 4.84981 4.07189C5.06343 5.09968 5.20718 5.32869 4.58963 6.15049C3.66398 7.38233 3.43276 8.91198 3.92914 10.5191C4.55476 12.5444 6.08677 13.9127 8.2406 14.3691C9.53899 14.6443 9.87835 15.0034 9.38255 16.4922C8.99227 17.6639 8.7455 17.9659 8.17833 17.9659C7.41521 17.9659 6.93718 17.3048 7.20025 16.6131C7.31612 16.3082 7.28165 16.2757 6.56677 16.0149C4.38449 15.2193 2.71538 13.4359 1.95226 11.0844C1.36242 9.26707 1.62195 6.90155 2.56819 5.47178C2.89036 4.98496 2.89535 4.94368 2.745 4.01173C2.65994 3.48416 2.61393 2.63505 2.64276 2.12465Z" fill="white"/>
<path d="M1.8807 15.4195C1.56623 14.9478 0.928912 14.8203 0.457205 15.1348C-0.0144915 15.4492 -0.141962 16.0866 0.172506 16.5583C0.404669 16.9066 0.682409 17.1926 0.918267 17.4284C0.96175 17.472 1.004 17.5139 1.04526 17.5549C1.24283 17.7512 1.41727 17.9244 1.59247 18.1301C1.97999 18.585 2.36658 19.1976 2.58629 20.2962C2.68415 20.7855 3.03588 21.0491 3.23077 21.1643C3.44213 21.2891 3.67306 21.3627 3.8631 21.4106C4.25184 21.5087 4.72375 21.5596 5.17162 21.5892C5.66327 21.6219 6.19599 21.6325 6.67236 21.6353C6.67271 22.2019 7.13215 22.6611 7.69885 22.6611C8.26577 22.6611 8.72535 22.2015 8.72535 21.6346V20.6081C8.72535 20.0412 8.26577 19.5816 7.69885 19.5816C7.60208 19.5816 7.49739 19.5819 7.38649 19.5823C6.78408 19.5842 5.99886 19.5865 5.30731 19.5408C4.97383 19.5187 4.69969 19.4874 4.49866 19.4491C4.18909 18.2338 3.68897 17.4252 3.15531 16.7988C2.9194 16.5219 2.67511 16.2797 2.47641 16.0826C2.43921 16.0457 2.40361 16.0104 2.36995 15.9768C2.14068 15.7475 1.99071 15.5845 1.8807 15.4195Z" fill="white"/>
</svg>
