<svg width="48" height="34" viewBox="0 0 48 34" fill="none" xmlns="http://www.w3.org/2000/svg">
<path fill-rule="evenodd" clip-rule="evenodd" d="M12.3448 0.975337L0 13.3202L12.3448 25.665C13.6453 26.9654 15.7538 26.9654 17.0542 25.665C18.3547 24.3646 18.3547 22.2561 17.0542 20.9556L12.7488 16.6502H36.3448C39.1034 16.6502 41.3399 18.8866 41.3399 21.6453C41.3399 24.4039 39.1034 26.6404 36.3448 26.6404H31.3498C29.5107 26.6404 28.0197 28.1312 28.0197 29.9704C28.0197 31.8096 29.5107 33.3005 31.3498 33.3005H36.3448C42.7818 33.3005 48 28.0823 48 21.6453C48 15.2083 42.7818 9.99014 36.3448 9.99014H12.7488L17.0542 5.68475C18.3547 4.38427 18.3547 2.27582 17.0542 0.975337C15.7538 -0.325112 13.6453 -0.325112 12.3448 0.975337Z" fill="#D9D9D9"/>
</svg>
