<svg width="254" height="254" viewBox="0 0 254 254" fill="none" xmlns="http://www.w3.org/2000/svg">
<path d="M91.6935 117.952C99.7503 117.952 106.282 111.421 106.282 103.364C106.282 95.3072 99.7503 88.7759 91.6935 88.7759C83.6367 88.7759 77.1054 95.3072 77.1054 103.364C77.1054 111.421 83.6367 117.952 91.6935 117.952Z" fill="#EFEFEF"/>
<path d="M161.717 117.952C169.773 117.952 176.305 111.421 176.305 103.364C176.305 95.3072 169.773 88.7759 161.717 88.7759C153.66 88.7759 147.128 95.3072 147.128 103.364C147.128 111.421 153.66 117.952 161.717 117.952Z" fill="#EFEFEF"/>
<path d="M78.637 170.538C84.3867 175.518 91.963 179.116 100.127 181.472C108.383 183.855 117.534 185.058 126.705 185.058C135.876 185.058 145.027 183.855 153.283 181.472C161.447 179.116 169.023 175.518 174.773 170.538M243.41 126.705C243.41 191.159 191.159 243.41 126.705 243.41C62.2506 243.41 10 191.159 10 126.705C10 62.2506 62.2506 10 126.705 10C191.159 10 243.41 62.2506 243.41 126.705ZM106.282 103.364C106.282 111.421 99.7503 117.952 91.6935 117.952C83.6367 117.952 77.1054 111.421 77.1054 103.364C77.1054 95.3072 83.6367 88.7759 91.6935 88.7759C99.7503 88.7759 106.282 95.3072 106.282 103.364ZM176.305 103.364C176.305 111.421 169.773 117.952 161.717 117.952C153.66 117.952 147.128 111.421 147.128 103.364C147.128 95.3072 153.66 88.7759 161.717 88.7759C169.773 88.7759 176.305 95.3072 176.305 103.364Z" stroke="#EFEFEF" stroke-width="20" stroke-linecap="round"/>
</svg>
