<svg width="60" height="60" viewBox="0 0 60 60" fill="none" xmlns="http://www.w3.org/2000/svg">
<path fill-rule="evenodd" clip-rule="evenodd" d="M33.249 32.001C36.564 32.001 39.249 29.316 39.249 26.001C39.249 22.686 36.564 20.001 33.249 20.001C29.937 20.001 27.249 22.686 27.249 26.001C27.249 29.316 29.937 32.001 33.249 32.001ZM6 54H11.868L20.472 44.6462L10.782 34.2063L6 38.9883V54ZM6 30.501L10.734 25.7673L10.782 25.8149L10.83 25.7673L24.714 39.6541L29.007 35.3613L29.055 35.4089L29.103 35.3613L42 48.2578V18H6V30.501ZM37.758 54L29.055 45.2974L20.352 54H37.758ZM0 60H48V12H0V60ZM60 0V48H54V6H12V0H60Z" fill="#EFEFEF"/>
</svg>
