<svg width="10" height="15" viewBox="0 0 10 15" fill="none" xmlns="http://www.w3.org/2000/svg">
<path fill-rule="evenodd" clip-rule="evenodd" d="M6.42857 5.1566C6.42857 5.94588 5.78929 6.58517 5 6.58517C4.21071 6.58517 3.57143 5.94588 3.57143 5.1566C3.57143 4.36731 4.21071 3.72803 5 3.72803C5.78929 3.72803 6.42857 4.36731 6.42857 5.1566ZM5 12.1429C5 12.1429 1.42857 7.14286 1.42857 5C1.42857 3.03071 3.03071 1.42857 5 1.42857C6.96929 1.42857 8.57143 3.03071 8.57143 5C8.57143 7.14286 5 12.1429 5 12.1429ZM5 0C2.23857 0 0 2.23857 0 5C0 7.76143 5 14.2857 5 14.2857C5 14.2857 10 7.76143 10 5C10 2.23857 7.76143 0 5 0Z" fill="#EFEFEF"/>
</svg>
