<svg width="356" height="234" viewBox="0 0 356 234" fill="none" xmlns="http://www.w3.org/2000/svg">
<path d="M69.9811 111.809C81.898 111.809 92.8369 116.023 101.416 123.062L101.32 122.987C102.957 124.32 105.073 125.137 107.369 125.137C110.42 125.137 113.141 123.718 114.917 121.493L114.927 121.472C116.245 119.816 117.053 117.678 117.053 115.356C117.053 112.272 115.64 109.52 113.439 107.725L113.418 107.714C107.688 103.061 101.044 99.2452 93.8362 96.5905L93.3472 96.4293C107.007 76.2127 129.672 63.1003 155.366 63.0251C196.475 63.0574 229.844 96.6013 230.152 138.088V138.12C221.435 139.678 213.781 143.44 207.52 148.814L207.583 148.76C205.5 150.566 204.182 153.231 204.182 156.219C204.182 158.627 205.043 160.83 206.467 162.539L206.457 162.528C208.243 164.635 210.879 165.968 213.834 165.968C216.215 165.968 218.395 165.097 220.085 163.657L220.074 163.668C224.933 159.487 231.29 156.95 238.221 156.95C253.741 156.972 266.328 169.686 266.349 185.378C266.339 201.081 253.752 213.806 238.231 213.817H69.8429C41.9908 213.785 19.4221 190.956 19.3902 162.797C19.4327 134.648 41.9908 111.842 69.8323 111.809H69.9811ZM260.056 20.4208C259.131 23.441 258.334 27.106 257.802 30.8569L257.76 31.2546C257.313 34.3392 257.058 37.9075 257.058 41.5295C257.058 79.0716 284.474 110.143 320.172 115.41L320.576 115.453C323.669 115.915 327.231 116.184 330.856 116.184H331.515H331.483C321.012 138.066 299.868 153.231 275.077 154.801L274.886 154.811C268.486 147.041 259.812 141.387 249.914 138.872L249.585 138.797V138.614C249.574 106.489 233.82 78.0935 209.699 60.8755L209.401 60.6713C218.405 39.6164 237.126 24.333 259.673 20.4853L260.067 20.4316L260.056 20.4208ZM69.8536 233.389H238.242C264.457 233.356 285.697 211.882 285.718 185.378C285.697 181.122 285.134 177.006 284.092 173.083L284.166 173.416C319.077 167.687 346.674 141.527 354.817 107.671L354.934 107.07C355.093 106.403 355.189 105.64 355.189 104.856C355.189 102.287 354.211 99.9438 352.606 98.1919L352.617 98.2027C350.841 96.2681 348.322 95.0643 345.515 95.0643C344.994 95.0643 344.495 95.1073 343.995 95.1825L344.048 95.1718L340.2 95.7737C337.372 96.3003 334.109 96.6012 330.781 96.6012C328.102 96.6012 325.477 96.4078 322.904 96.0316L323.202 96.0639C296.572 92.1732 276.342 69.2588 276.342 41.5725C276.342 38.8855 276.533 36.2523 276.895 33.6621L276.863 33.9523C277.862 26.8803 280.042 20.5068 283.209 14.7567L283.071 15.0362C283.943 13.6497 284.474 11.9623 284.517 10.1567C284.517 10.0814 284.517 9.97396 284.517 9.87723C284.517 4.6538 280.467 0.386921 275.375 0.118226H275.353C274.025 0.0429912 272.462 0 270.899 0C236.212 0 206.297 20.7218 192.626 50.5792L192.403 51.1165C181.517 46.2585 168.814 43.4319 155.462 43.4319C155.43 43.4319 155.398 43.4319 155.366 43.4319C120.168 43.5178 89.5095 63.0251 73.2873 91.9152L73.0428 92.3881C71.9584 92.3344 70.8848 92.2484 69.8004 92.2484C31.2646 92.2914 0.0425223 123.868 0 162.818C0.0425223 201.779 31.2646 233.356 69.8004 233.41L69.8536 233.389Z" fill="#EFEFEF"/>
<path d="M24 124.5L10 160L30 205.5L53.5 222.5H224.5L260 217.5L274 196.5V169L255 154L239.5 134.5V119L231 100L217 79.5L204.5 59.5H180.5L147.5 54L112.5 65.5L78 100L53.5 105L24 124.5Z" fill="#D8D8D8"/>
</svg>
