<svg width="36" height="38" viewBox="0 0 36 38" fill="none" xmlns="http://www.w3.org/2000/svg">
<path d="M2 8.8C2 5.59445 2 3.99167 2.93726 2.99584C3.87451 2 5.38301 2 8.4 2C11.417 2 12.9255 2 13.8627 2.99584C14.8 3.99167 14.8 5.59445 14.8 8.8V29.2C14.8 32.4055 14.8 34.0083 13.8627 35.0041C12.9255 36 11.417 36 8.4 36C5.38301 36 3.87451 36 2.93726 35.0041C2 34.0083 2 32.4055 2 29.2V8.8Z" stroke="#D9D9D9" stroke-width="3.75"/>
<path d="M21.2002 8.8C21.2002 5.59445 21.2002 3.99167 22.1375 2.99584C23.0748 2 24.5832 2 27.6002 2C30.6172 2 32.1256 2 33.0629 2.99584C34.0002 3.99167 34.0002 5.59445 34.0002 8.8V29.2C34.0002 32.4055 34.0002 34.0083 33.0629 35.0041C32.1256 36 30.6172 36 27.6002 36C24.5832 36 23.0748 36 22.1375 35.0041C21.2002 34.0083 21.2002 32.4055 21.2002 29.2V8.8Z" stroke="#D9D9D9" stroke-width="3.75"/>
</svg>
