<svg width="13" height="13" viewBox="0 0 13 13" fill="none" xmlns="http://www.w3.org/2000/svg">
<path d="M8.25962 1.3H10.075C10.9725 1.3 11.7 2.02754 11.7 2.925V4.74038L12.4452 3.99519C12.5721 3.86827 12.7779 3.86827 12.9048 3.99519C13.0317 4.12211 13.0317 4.32789 12.9048 4.45481L11.6048 5.75481C11.4779 5.88173 11.2721 5.88173 11.1452 5.75481L9.84519 4.45481C9.71827 4.32789 9.71827 4.12211 9.84519 3.99519C9.97211 3.86827 10.1779 3.86827 10.3048 3.99519L11.05 4.74038V2.925C11.05 2.38652 10.6135 1.95 10.075 1.95H8.25962L9.00481 2.69519C9.13173 2.82211 9.13173 3.02789 9.00481 3.15481C8.87789 3.28173 8.67211 3.28173 8.54519 3.15481L7.24519 1.85481C7.11827 1.72789 7.11827 1.52211 7.24519 1.39519L8.54519 0.0951904C8.67211 -0.03173 8.87789 -0.03173 9.00481 0.0951904C9.13173 0.222111 9.13173 0.427889 9.00481 0.55481L8.25962 1.3ZM1.625 0H4.875C5.77246 0 6.5 0.727537 6.5 1.625V8.775C6.5 9.67246 5.77246 10.4 4.875 10.4H1.625C0.727537 10.4 0 9.67246 0 8.775V1.625C0 0.727537 0.727537 0 1.625 0ZM1.625 0.65C1.08652 0.65 0.65 1.08652 0.65 1.625V8.775C0.65 9.31348 1.08652 9.75 1.625 9.75H4.875C5.41348 9.75 5.85 9.31348 5.85 8.775V1.625C5.85 1.08652 5.41348 0.65 4.875 0.65H1.625ZM9.425 7.15C9.24551 7.15 9.1 7.00449 9.1 6.825C9.1 6.64551 9.24551 6.5 9.425 6.5H10.075C10.2545 6.5 10.4 6.64551 10.4 6.825C10.4 7.00449 10.2545 7.15 10.075 7.15H9.425ZM7.475 7.15C7.29551 7.15 7.15 7.00449 7.15 6.825C7.15 6.64551 7.29551 6.5 7.475 6.5H8.125C8.30449 6.5 8.45 6.64551 8.45 6.825C8.45 7.00449 8.30449 7.15 8.125 7.15H7.475ZM9.425 13C9.24551 13 9.1 12.8545 9.1 12.675C9.1 12.4955 9.24551 12.35 9.425 12.35H10.075C10.2545 12.35 10.4 12.4955 10.4 12.675C10.4 12.8545 10.2545 13 10.075 13H9.425ZM7.475 13C7.29551 13 7.15 12.8545 7.15 12.675C7.15 12.4955 7.29551 12.35 7.475 12.35H8.125C8.30449 12.35 8.45 12.4955 8.45 12.675C8.45 12.8545 8.30449 13 8.125 13H7.475ZM5.525 13C5.34551 13 5.2 12.8545 5.2 12.675C5.2 12.4955 5.34551 12.35 5.525 12.35H6.175C6.35449 12.35 6.5 12.4955 6.5 12.675C6.5 12.8545 6.35449 13 6.175 13H5.525ZM11.375 7.15C11.1955 7.15 11.05 7.00449 11.05 6.825C11.05 6.64551 11.1955 6.5 11.375 6.5C12.2725 6.5 13 7.22754 13 8.125C13 8.30449 12.8545 8.45 12.675 8.45C12.4955 8.45 12.35 8.30449 12.35 8.125C12.35 7.58652 11.9135 7.15 11.375 7.15ZM12.35 9.425C12.35 9.24551 12.4955 9.1 12.675 9.1C12.8545 9.1 13 9.24551 13 9.425V10.075C13 10.2545 12.8545 10.4 12.675 10.4C12.4955 10.4 12.35 10.2545 12.35 10.075V9.425ZM12.35 11.375C12.35 11.1955 12.4955 11.05 12.675 11.05C12.8545 11.05 13 11.1955 13 11.375C13 12.2725 12.2725 13 11.375 13C11.1955 13 11.05 12.8545 11.05 12.675C11.05 12.4955 11.1955 12.35 11.375 12.35C11.9135 12.35 12.35 11.9135 12.35 11.375ZM4.225 12.35C4.40449 12.35 4.55 12.4955 4.55 12.675C4.55 12.8545 4.40449 13 4.225 13C3.32754 13 2.6 12.2725 2.6 11.375C2.6 11.1955 2.74551 11.05 2.925 11.05C3.10449 11.05 3.25 11.1955 3.25 11.375C3.25 11.9135 3.68652 12.35 4.225 12.35Z" fill="#EFEFEF"/>
</svg>
