<svg width="254" height="254" viewBox="0 0 254 254" fill="none" xmlns="http://www.w3.org/2000/svg">
<path d="M91.6935 117.952C99.7503 117.952 106.282 111.421 106.282 103.364C106.282 95.3072 99.7503 88.7759 91.6935 88.7759C83.6367 88.7759 77.1054 95.3072 77.1054 103.364C77.1054 111.421 83.6367 117.952 91.6935 117.952Z" fill="#EFEFEF"/>
<path d="M161.717 117.952C169.773 117.952 176.305 111.421 176.305 103.364C176.305 95.3072 169.773 88.7759 161.717 88.7759C153.66 88.7759 147.128 95.3072 147.128 103.364C147.128 111.421 153.66 117.952 161.717 117.952Z" fill="#EFEFEF"/>
<path d="M78.637 176.236C84.3867 171.256 91.963 167.658 100.127 165.302C108.383 162.919 117.534 161.717 126.705 161.717C135.876 161.717 145.027 162.919 153.283 165.302C161.447 167.658 169.023 171.256 174.773 176.236M243.41 126.705C243.41 191.159 191.159 243.41 126.705 243.41C62.2506 243.41 10 191.159 10 126.705C10 62.2506 62.2506 10 126.705 10C191.159 10 243.41 62.2506 243.41 126.705ZM106.282 103.364C106.282 111.421 99.7503 117.952 91.6935 117.952C83.6367 117.952 77.1054 111.421 77.1054 103.364C77.1054 95.3072 83.6367 88.7759 91.6935 88.7759C99.7503 88.7759 106.282 95.3072 106.282 103.364ZM176.305 103.364C176.305 111.421 169.773 117.952 161.717 117.952C153.66 117.952 147.128 111.421 147.128 103.364C147.128 95.3072 153.66 88.7759 161.717 88.7759C169.773 88.7759 176.305 95.3072 176.305 103.364Z" stroke="#EFEFEF" stroke-width="20" stroke-linecap="round"/>
</svg>
