<svg width="49" height="46" viewBox="0 0 49 46" fill="none" xmlns="http://www.w3.org/2000/svg">
<path fill-rule="evenodd" clip-rule="evenodd" d="M16.6031 9.2C16.6031 7.9304 17.685 6.9 19.0181 6.9C20.3512 6.9 21.4331 7.9304 21.4331 9.2C21.4331 10.4696 20.3512 11.5 19.0181 11.5C17.685 11.5 16.6031 10.4696 16.6031 9.2ZM43.47 39.1C43.47 40.3696 42.3881 41.4 41.055 41.4H38.64V32.2C38.64 29.6585 36.4786 27.6 33.81 27.6H14.49C11.8214 27.6 9.66003 29.6585 9.66003 32.2V41.4H7.24499C5.91191 41.4 4.83001 40.3696 4.83001 39.1V16.2012C4.83001 15.8953 4.95798 15.6032 5.18258 15.3893L9.66003 11.1251V13.8C9.66003 16.3415 11.8214 18.4 14.49 18.4H33.81C36.4786 18.4 38.64 16.3415 38.64 13.8V4.6H41.055C42.3881 4.6 43.47 5.6304 43.47 6.9V39.1ZM33.81 41.4H14.49V34.5C14.49 33.2304 15.5719 32.2 16.905 32.2H31.395C32.7281 32.2 33.81 33.2304 33.81 34.5V41.4ZM14.49 6.52511L16.5114 4.6H33.81V11.5C33.81 12.7696 32.7281 13.8 31.395 13.8H16.905C15.5719 13.8 14.49 12.7696 14.49 11.5V6.52511ZM43.47 0H15.4898C14.8499 0 14.2364 0.241498 13.7824 0.673898L0.70759 13.1261C0.25357 13.5585 0 14.1427 0 14.7522V41.4C0 43.9415 2.16144 46 4.83001 46H43.47C46.1386 46 48.3 43.9415 48.3 41.4V4.6C48.3 2.0585 46.1386 0 43.47 0Z" fill="#D9D9D9"/>
</svg>
