<svg width="27" height="26" viewBox="0 0 27 26" fill="none" xmlns="http://www.w3.org/2000/svg">
<path d="M12.5497 3.18854C12.8508 2.51104 13.0014 2.17229 13.211 2.06797C13.3931 1.97734 13.6069 1.97734 13.789 2.06797C13.9986 2.17229 14.1492 2.51104 14.4503 3.18854L16.8485 8.58493C16.9376 8.78521 16.982 8.88536 17.051 8.96204C17.1118 9.0299 17.1864 9.08418 17.2695 9.12133C17.3635 9.16333 17.4722 9.17484 17.6897 9.19785L23.5476 9.81799C24.2831 9.89584 24.6507 9.93477 24.8145 10.1025C24.9566 10.2482 25.0227 10.4522 24.993 10.6539C24.959 10.8861 24.6843 11.1344 24.1349 11.631L19.7591 15.5863C19.5968 15.733 19.5155 15.8065 19.4641 15.8958C19.4186 15.975 19.3901 16.0628 19.3806 16.1536C19.3698 16.2563 19.3924 16.3635 19.4378 16.5781L20.6601 22.3576C20.8135 23.0833 20.8903 23.4461 20.7818 23.654C20.6875 23.8348 20.5145 23.9608 20.3141 23.9949C20.0834 24.034 19.7631 23.8488 19.1225 23.4782L14.0198 20.5262C13.8305 20.4166 13.7358 20.362 13.6351 20.3405C13.5461 20.3215 13.454 20.3215 13.3649 20.3405C13.2642 20.362 13.1695 20.4166 12.9802 20.5262L7.8776 23.4782C7.23698 23.8488 6.91668 24.034 6.68595 23.9949C6.48553 23.9608 6.3125 23.8348 6.21829 23.654C6.10984 23.4461 6.18656 23.0833 6.34001 22.3576L7.56219 16.5781C7.60756 16.3635 7.63024 16.2563 7.61947 16.1536C7.60994 16.0628 7.58149 15.975 7.53597 15.8958C7.48454 15.8065 7.40333 15.733 7.24094 15.5863L2.86516 11.631C2.3158 11.1344 2.04111 10.8861 2.00696 10.6539C1.97731 10.4522 2.04339 10.2482 2.18559 10.1025C2.3493 9.93477 2.71702 9.89584 3.45247 9.81799L9.31043 9.19785C9.52785 9.17484 9.63655 9.16333 9.73055 9.12133C9.81372 9.08418 9.88819 9.0299 9.94913 8.96204C10.018 8.88536 10.0625 8.78521 10.1515 8.58493L12.5497 3.18854Z" stroke="white" stroke-width="3.5" stroke-linecap="round" stroke-linejoin="round"/>
</svg>
