<svg width="254" height="254" viewBox="0 0 254 254" fill="none" xmlns="http://www.w3.org/2000/svg">
<path d="M126.703 10.5933V23.5604ZM126.703 231.033V244ZM22.967 127.297H10ZM52.9743 53.5676L42.4176 43.0109ZM200.433 53.5676L210.989 43.0109ZM52.9743 201.079L42.4176 211.584ZM200.433 201.079L210.989 211.584ZM243.407 127.297H230.44ZM178.571 127.297C178.571 155.942 155.349 179.165 126.703 179.165C98.0573 179.165 74.8352 155.942 74.8352 127.297C74.8352 98.6506 98.0573 75.4285 126.703 75.4285C155.349 75.4285 178.571 98.6506 178.571 127.297Z" fill="#D8D8D8"/>
<path d="M126.703 10.5933V23.5604M126.703 231.033V244M22.967 127.297H10M52.9743 53.5676L42.4176 43.0109M200.433 53.5676L210.989 43.0109M52.9743 201.079L42.4176 211.584M200.433 201.079L210.989 211.584M243.407 127.297H230.44M178.571 127.297C178.571 155.942 155.349 179.165 126.703 179.165C98.0573 179.165 74.8352 155.942 74.8352 127.297C74.8352 98.6506 98.0573 75.4285 126.703 75.4285C155.349 75.4285 178.571 98.6506 178.571 127.297Z" stroke="#EFEFEF" stroke-width="20" stroke-linecap="round" stroke-linejoin="round"/>
</svg>
