<svg width="27" height="23" viewBox="0 0 27 23" fill="none" xmlns="http://www.w3.org/2000/svg">
<path fill-rule="evenodd" clip-rule="evenodd" d="M23.0516 1.53731C23.4793 1.43553 23.7776 1.33546 24.0219 1.23036C24.3643 1.08306 24.6482 0.906611 25.0968 0.609436C25.4736 0.359677 25.9567 0.337929 26.3543 0.552803C26.752 0.767678 27 1.18446 27 1.63787C27 2.96982 26.8347 4.06149 26.452 5.02221C26.13 5.83032 25.6776 6.48667 25.1365 7.08406C24.908 11.2282 23.7133 14.4826 21.8867 16.9481C19.9935 19.5036 17.4747 21.1402 14.8195 22.0567C12.172 22.9704 9.37474 23.1745 6.86875 22.8651C4.37918 22.5578 2.07791 21.7303 0.473881 20.4777C0.0346169 20.1347 -0.119794 19.5378 0.097674 19.0234C0.315146 18.5091 0.850051 18.2061 1.40095 18.2852C2.97918 18.5116 4.4984 18.1513 5.74764 17.6362C5.50172 17.5019 5.26985 17.3565 5.05433 17.2067C3.916 16.4154 2.99757 15.3413 2.58419 14.5112C2.41312 14.1678 2.41136 13.7637 2.57942 13.4188C2.66611 13.2408 2.79289 13.0891 2.94681 12.9734C1.28476 11.5961 0.613716 9.69122 0.613716 8.41508C0.613716 8.03563 0.787841 7.67734 1.08572 7.44384C1.21098 7.34565 1.35224 7.27412 1.50114 7.23104C1.37677 6.8654 1.28026 6.49596 1.2067 6.13831C0.880524 4.55262 0.909475 2.76286 1.264 1.33902C1.38531 0.851777 1.78901 0.487225 2.2844 0.417555C2.77977 0.347897 3.2677 0.587071 3.51767 1.02211C4.84006 3.3235 7.27922 4.73022 9.5493 5.5635C10.6166 5.95528 11.605 6.20492 12.3459 6.35841C12.5058 4.85437 12.9241 3.61403 13.5661 2.62889C14.413 1.32915 15.5943 0.56016 16.8628 0.21727C19.0506 -0.374073 21.4783 0.299631 23.0516 1.53731ZM11.964 8.79533C11.1232 8.62581 9.96761 8.34103 8.70648 7.87811C7.04081 7.26669 5.10661 6.31331 3.48642 4.83653C3.51542 5.10828 3.55658 5.37774 3.61051 5.63988C3.88204 6.95999 4.3866 7.69932 4.84438 7.92913C5.40427 8.21021 5.66374 8.86933 5.44655 9.45882C5.1525 10.2569 4.3791 10.3224 3.67639 10.146C4.24157 10.9968 5.25743 11.845 6.95182 12.1286C7.53622 12.2264 7.96762 12.7294 7.97717 13.3242C7.98673 13.919 7.57171 14.4356 6.99075 14.5523L5.92246 14.7669C6.08589 14.9094 6.26284 15.0493 6.45148 15.1804C7.30678 15.7749 8.16555 16.0314 8.90695 15.8453C9.46222 15.7059 10.0397 15.9704 10.2989 16.4828C10.558 16.9952 10.43 17.6195 9.99028 17.9873C9.20002 18.6477 8.2771 19.1777 7.35213 19.6175C6.9179 19.824 6.43262 20.0278 5.90559 20.2072C6.31093 20.2941 6.73272 20.3653 7.1683 20.4192C9.34128 20.6874 11.7599 20.5065 14.0215 19.7261C16.2754 18.9482 18.3587 17.5811 19.9173 15.4774C21.4736 13.3764 22.5597 10.469 22.7054 6.52122C22.7168 6.21041 22.845 5.91544 23.064 5.69551C23.6158 5.14144 24.0719 4.50637 24.2962 3.75044C23.9036 3.87333 23.4615 3.97969 22.935 4.08076C22.5356 4.15743 22.1243 4.03047 21.8368 3.74178C20.8985 2.79971 19.0429 2.1802 17.5008 2.59698C16.7751 2.79314 16.1155 3.21779 15.62 3.9781C15.1143 4.75438 14.7273 5.96369 14.7273 7.79902C14.7273 8.14772 14.5802 8.48007 14.3224 8.71371C13.7113 9.26758 12.6827 8.94022 11.964 8.79533Z" fill="white"/>
</svg>
