<svg width="14" height="28" viewBox="0 0 14 28" fill="none" xmlns="http://www.w3.org/2000/svg">
<path fill-rule="evenodd" clip-rule="evenodd" d="M7.00002 18.2249L13.4875 11.7374C14.1708 11.054 14.1708 9.94595 13.4875 9.26258C12.8567 8.63177 11.864 8.58324 11.1775 9.117L11.0126 9.26258L8.75003 11.5251V1.75C8.75003 0.783476 7.96653 0 7.00002 0C6.10256 0 5.36288 0.675547 5.26179 1.54591L5.25002 1.75V11.5251L2.98745 9.26258C2.30402 8.5792 1.19599 8.5792 0.512559 9.26258C-0.118283 9.89338 -0.166809 10.8861 0.36698 11.5726L0.512559 11.7374L7.00002 18.2249ZM7.00002 28C8.93303 28 10.5 26.433 10.5 24.5C10.5 22.567 8.93303 21 7.00002 21C5.06702 21 3.50001 22.567 3.50001 24.5C3.50001 26.433 5.06702 28 7.00002 28Z" fill="white"/>
</svg>
