<svg width="14" height="28" viewBox="0 0 14 28" fill="none" xmlns="http://www.w3.org/2000/svg">
<path fill-rule="evenodd" clip-rule="evenodd" d="M7.00002 9.77512L13.4875 16.2626C14.1708 16.946 14.1708 18.0541 13.4875 18.7374C12.8567 19.3682 11.864 19.4168 11.1775 18.883L11.0126 18.7374L8.75003 16.4749V26.25C8.75003 27.2165 7.96653 28 7.00002 28C6.10256 28 5.36288 27.3245 5.26179 26.4541L5.25002 26.25V16.4749L2.98745 18.7374C2.30402 19.4208 1.19599 19.4208 0.512559 18.7374C-0.118283 18.1066 -0.166809 17.1139 0.36698 16.4274L0.512559 16.2626L7.00002 9.77512ZM7.00002 0C8.93303 0 10.5 1.567 10.5 3.5C10.5 5.433 8.93303 7 7.00002 7C5.06702 7 3.50001 5.433 3.50001 3.5C3.50001 1.567 5.06702 0 7.00002 0Z" fill="white"/>
</svg>
