<svg width="54" height="54" viewBox="0 0 54 54" fill="none" xmlns="http://www.w3.org/2000/svg">
<path fill-rule="evenodd" clip-rule="evenodd" d="M0.508301 26.9995C0.508301 12.3688 12.3689 0.508179 26.9996 0.508179C41.6304 0.508179 53.4908 12.3688 53.4908 26.9995C53.4908 41.63 41.6304 53.4908 26.9996 53.4908C12.3689 53.4908 0.508301 41.63 0.508301 26.9995ZM26.9996 4.30816C14.4676 4.30816 4.30832 14.4674 4.30832 26.9995C4.30832 39.5316 14.4676 49.6908 26.9996 49.6908C39.5316 49.6908 49.6908 39.5316 49.6908 26.9995C49.6908 14.4674 39.5316 4.30816 26.9996 4.30816Z" fill="#EFEFEF"/>
<path opacity="0.05" fill-rule="evenodd" clip-rule="evenodd" d="M24.1318 50.504C31.9562 36.8113 31.9562 17.1887 24.1318 3.49619L25.8683 2.50391C34.044 16.8113 34.044 37.1888 25.8683 51.496L24.1318 50.504Z" fill="#EFEFEF"/>
<path opacity="0.1" fill-rule="evenodd" clip-rule="evenodd" d="M26.1282 50.91C33.9572 36.9809 33.9572 17.019 26.1282 3.08991L27.8717 2.10999C36.0427 16.6476 36.0427 37.3524 27.8717 51.89L26.1282 50.91Z" fill="#EFEFEF"/>
<path opacity="0.15" fill-rule="evenodd" clip-rule="evenodd" d="M28.2839 51.0256C35.9001 36.9809 35.9055 17.0564 28.2997 3.00335L30.0586 2.05139C37.986 16.6986 37.9804 37.34 30.0421 51.9792L28.2839 51.0256Z" fill="#EFEFEF"/>
<path opacity="0.2" fill-rule="evenodd" clip-rule="evenodd" d="M30.6514 50.716C37.7808 36.7137 37.7828 17.3015 30.6574 3.29608L32.44 2.38916C39.8556 16.9645 39.8532 37.0512 32.4336 51.6236L30.6514 50.716Z" fill="#EFEFEF"/>
<path opacity="0.25" fill-rule="evenodd" clip-rule="evenodd" d="M33.0977 50.1824C39.6268 36.3516 39.6344 17.7086 33.1202 3.86625L34.9298 3.01465C41.698 17.3968 41.6904 36.6652 34.9063 51.0364L33.0977 50.1824Z" fill="#EFEFEF"/>
<path opacity="0.3" fill-rule="evenodd" clip-rule="evenodd" d="M35.6724 49.262C41.4388 35.7829 41.4428 18.2484 35.6835 4.76379L37.5228 3.97827C43.4964 17.9648 43.4924 36.0673 37.5112 50.0488L35.6724 49.262Z" fill="#EFEFEF"/>
<path opacity="0.35" fill-rule="evenodd" clip-rule="evenodd" d="M38.324 47.9824C43.2204 35.0829 43.2256 18.9641 38.3388 6.05777L40.2096 5.34961C45.2688 18.7126 45.2636 35.3358 40.194 48.6924L38.324 47.9824Z" fill="#EFEFEF"/>
<path opacity="0.4" fill-rule="evenodd" clip-rule="evenodd" d="M41.062 46.1944C44.9752 34.1898 44.9792 19.8518 41.0736 7.84268L42.9756 7.22412C47.012 19.6356 47.008 34.4071 42.9636 46.814L41.062 46.1944Z" fill="#EFEFEF"/>
<path opacity="0.45" fill-rule="evenodd" clip-rule="evenodd" d="M43.8856 43.672C46.7016 33.0521 46.7048 20.9876 43.8948 10.3646L45.8284 9.85315C48.7272 20.8117 48.724 33.2291 45.8188 44.1844L43.8856 43.672Z" fill="#EFEFEF"/>
<path opacity="0.5" fill-rule="evenodd" clip-rule="evenodd" d="M46.7728 40.008C48.4096 31.5505 48.4092 22.4436 46.7716 13.9864L48.7352 13.6062C50.4212 22.3144 50.4216 31.6794 48.7364 40.388L46.7728 40.008Z" fill="#EFEFEF"/>
</svg>
